<?xml version="1.0" encoding="UTF-8" standalone="no"?>
<svg
   version="1.0"
   width="1024.000000pt"
   height="1024.000000pt"
   viewBox="0 0 1024.000000 1024.000000"
   preserveAspectRatio="xMidYMid meet"
   id="svg854"
   sodipodi:docname="Logo_CoraLab.svg"
   inkscape:version="1.1 (c68e22c387, 2021-05-23)"
   xmlns:inkscape="http://www.inkscape.org/namespaces/inkscape"
   xmlns:sodipodi="http://sodipodi.sourceforge.net/DTD/sodipodi-0.dtd"
   xmlns="http://www.w3.org/2000/svg"
   xmlns:svg="http://www.w3.org/2000/svg">
  <defs
     id="defs858" />
  <sodipodi:namedview
     id="namedview856"
     pagecolor="#505050"
     bordercolor="#eeeeee"
     borderopacity="1"
     inkscape:pageshadow="0"
     inkscape:pageopacity="0"
     inkscape:pagecheckerboard="0"
     inkscape:document-units="pt"
     showgrid="false"
     inkscape:zoom="0.5925293"
     inkscape:cx="681.82283"
     inkscape:cy="682.66667"
     inkscape:window-width="1920"
     inkscape:window-height="1017"
     inkscape:window-x="-8"
     inkscape:window-y="-8"
     inkscape:window-maximized="1"
     inkscape:current-layer="svg854" />
  <g
     transform="translate(0.000000,1024.000000) scale(0.100000,-0.100000)"
     fill="#000000"
     stroke="none"
     id="g852"
     style="fill:#008080;fill-opacity:1"
     inkscape:export-filename="E:\DanielDiscoA\Documents\UNAL\GraficaInteractiva\DanielPena_eje1\Img\Logo_CoraLab_Teal.png"
     inkscape:export-xdpi="96"
     inkscape:export-ydpi="96">
    <path
       d="M5480 8704 c-208 -44 -377 -198 -436 -399 -23 -76 -21 -58 -22 -212 l-2 -133 -30 0 c-41 0 -99 -25 -133 -58 -24 -23 -73 -101 -68 -109 0 -2 1 -59 1 -128 l0 -125 -60 0 c-178 0 -313 -134 -327 -326 l-6 -74 -634 0 -635 0 -61 37 c-34 21 -65 42 -68 46 -3 5 -10 8 -15 8 -5 0 -38 9 -74 21 -70 22 -231 33 -278 18 -116 -35 -168 -55 -195 -73 -74 -51 -108 -81 -149 -135 -24 -31 -46 -59 -49 -62 -12 -10 -60 -141 -69 -191 -25 -131 -3 -295 54 -407 34 -68 107 -158 156 -193 49 -36 163 -94 203 -104 l27 -7 0 -1573 0 -1573 -23 -6 c-42 -10 -135 -90 -167 -143 -62 -102 -64 -112 -68 -523 -4 -396 -1 -455 24 -464 9 -3 1250 -6 2757 -6 2619 0 2742 1 2759 18 17 16 18 46 18 412 0 217 -2 408 -5 424 -6 48 -62 149 -107 195 -24 24 -67 57 -95 73 l-53 30 0 1567 0 1567 68 27 c37 15 72 28 77 30 6 1 12 4 15 8 3 3 21 15 42 27 61 38 154 145 192 224 70 145 83 325 32 466 -8 23 -12 42 -8 42 4 0 2 4 -4 8 -6 4 -20 25 -32 47 -109 214 -385 339 -642 290 -33 -6 -137 -50 -172 -72 -21 -12 -40 -23 -44 -23 -3 0 -12 -7 -20 -15 -13 -12 -50 -15 -208 -15 l-194 0 -71 66 c-87 80 -187 212 -242 317 -22 42 -37 77 -34 77 3 0 -2 11 -11 25 -9 14 -13 25 -9 25 4 0 2 7 -5 15 -7 8 -9 15 -5 15 4 0 3 6 -3 13 -16 21 -41 117 -67 269 -50 295 -125 455 -276 591 -51 46 -177 125 -214 133 -167 38 -227 42 -335 18z m292 -261 c87 -41 176 -129 217 -216 17 -35 32 -73 34 -83 2 -11 7 -26 10 -34 3 -8 11 -42 17 -75 7 -33 14 -69 16 -80 2 -11 13 -67 23 -125 28 -151 27 -148 56 -235 37 -109 114 -257 191 -365 l63 -90 -264 0 -265 0 0 58 c-1 151 -75 264 -212 319 -42 17 -80 25 -115 24 l-53 -1 0 123 c0 74 -5 137 -13 160 -25 71 -114 139 -187 141 l-35 1 3 124 c5 190 48 277 173 345 75 40 92 44 189 42 72 -1 95 -6 152 -33z m-502 -803 l0 -100 -135 0 -135 0 0 93 c0 52 3 97 7 100 3 4 64 7 135 7 l128 0 0 -100z m317 -346 c15 -12 37 -36 48 -55 19 -33 20 -55 23 -551 l3 -518 -526 0 -525 0 0 508 c0 507 0 508 23 552 16 33 34 51 67 68 45 23 45 23 452 20 395 -3 407 -4 435 -24z m-2692 -282 c73 -36 138 -104 173 -180 23 -48 27 -71 27 -147 -1 -117 -31 -189 -114 -268 -72 -69 -135 -92 -246 -91 -110 2 -178 29 -249 100 -76 76 -99 138 -100 264 -1 82 2 102 25 150 33 70 79 123 136 157 78 45 112 54 203 50 70 -4 96 -10 145 -35z m4726 22 c103 -30 175 -91 230 -194 21 -39 24 -58 24 -150 0 -94 -3 -111 -27 -160 -34 -68 -97 -134 -159 -165 -98 -50 -238 -51 -332 -4 -172 88 -244 309 -156 483 84 168 246 241 420 190z m-3211 -219 l0 -95 -550 0 -550 0 0 23 c0 20 -16 89 -34 145 l-7 22 570 0 571 0 0 -95z m2574 73 c-18 -56 -34 -125 -34 -145 l0 -23 -545 0 -545 0 0 95 0 95 566 0 565 0 -7 -22z m-2576 -485 l3 -93 -606 0 -606 0 22 31 c12 18 33 57 45 88 l23 56 103 6 c57 3 308 5 558 5 l455 -1 3 -92z m2572 62 c8 -16 29 -55 47 -86 18 -31 33 -59 33 -63 0 -3 -269 -5 -597 -4 l-598 3 -3 87 c-2 76 -1 87 15 91 10 3 259 4 553 3 l534 -1 16 -30z m-2574 -414 c10 -48 47 -75 97 -72 23 1 63 -1 90 -4 l47 -7 0 -65 c0 -77 -9 -64 190 -293 45 -52 108 -124 139 -159 31 -35 62 -73 70 -85 23 -33 31 -36 103 -36 l67 0 193 227 c106 124 203 238 216 251 21 24 26 52 24 128 l-1 32 84 4 c94 5 117 17 135 74 l12 34 734 0 734 0 0 -1485 c0 -817 -3 -1485 -5 -1485 -3 0 -64 29 -135 65 -72 36 -130 63 -130 61 0 -3 -19 2 -42 10 -26 10 -76 16 -128 16 -93 0 -148 -16 -266 -78 -36 -19 -77 -34 -91 -34 -13 0 -52 16 -85 35 -134 79 -256 97 -378 56 -36 -13 -125 -56 -198 -98 -73 -42 -135 -73 -138 -70 -3 3 9 34 27 68 33 67 156 199 184 199 8 0 15 4 15 9 0 13 117 57 173 65 97 15 138 27 209 62 235 118 253 461 30 587 -31 17 -64 33 -73 34 -43 7 -69 25 -85 60 -10 21 -28 48 -41 61 l-24 22 33 40 c18 22 36 40 41 40 4 0 7 6 7 13 0 7 5 18 12 25 6 6 13 17 15 24 1 7 10 38 18 68 18 61 15 163 -5 220 -49 136 -181 225 -325 222 -60 -2 -87 -7 -114 -22 -12 -6 -21 -8 -21 -6 0 3 -16 -3 -36 -15 l-36 -20 6 26 c9 37 -11 141 -39 194 -33 64 -92 124 -156 157 -49 26 -63 29 -154 29 -92 0 -104 -2 -154 -30 -29 -16 -66 -45 -82 -64 -22 -27 -30 -31 -34 -19 -3 8 -27 30 -53 49 -26 18 -49 36 -52 39 -11 15 -108 34 -166 33 -173 -2 -328 -158 -342 -344 l-5 -68 -26 13 c-104 53 -210 61 -310 24 -78 -28 -171 -122 -196 -198 -25 -73 -26 -78 -26 -125 2 -105 37 -190 113 -271 19 -21 26 -34 19 -39 -6 -3 -25 -33 -41 -66 -29 -56 -40 -65 -91 -72 -38 -6 -113 -53 -151 -96 -55 -61 -83 -136 -82 -221 0 -62 23 -145 47 -178 60 -79 175 -159 242 -169 65 -10 189 -35 208 -42 12 -5 25 -9 30 -10 33 -4 123 -65 177 -120 73 -74 140 -181 113 -181 -8 0 -75 31 -147 69 -170 90 -215 106 -306 110 -87 3 -162 -18 -267 -75 -35 -19 -74 -34 -88 -34 -24 0 -84 30 -117 58 -10 8 -18 12 -18 7 0 -4 -6 -3 -12 3 -47 38 -209 54 -308 30 -43 -10 -294 -129 -315 -149 -5 -5 -14 -9 -20 -9 -9 0 -12 380 -14 1495 l-2 1495 736 0 736 0 5 -29z m1034 -101 c0 -6 -11 -23 -26 -38 -14 -15 -51 -61 -82 -102 -150 -198 -161 -210 -192 -210 -27 0 -45 19 -163 168 -73 92 -137 173 -141 180 -6 9 57 12 298 12 206 0 306 -3 306 -10z m-510 -937 c40 -23 49 -50 71 -203 21 -150 29 -182 66 -256 27 -57 71 -89 108 -80 35 9 83 70 100 129 8 28 18 121 23 204 7 130 11 157 28 180 29 39 84 52 130 30 57 -28 64 -57 58 -253 -7 -222 -28 -295 -110 -384 -55 -60 -114 -152 -129 -202 -7 -26 -15 -89 -16 -140 -2 -87 -1 -93 19 -96 25 -4 86 48 100 85 6 16 15 59 21 97 13 89 33 112 98 109 26 -1 59 5 74 12 15 8 58 59 95 112 138 200 223 297 270 309 35 9 93 -16 118 -49 30 -40 27 -110 -6 -162 -57 -91 -279 -356 -382 -457 -34 -33 -92 -85 -131 -116 -210 -169 -273 -276 -251 -425 13 -87 69 -110 131 -56 52 46 80 100 110 214 37 141 83 183 164 149 46 -19 68 -18 107 7 44 27 84 95 99 170 16 78 36 106 81 115 76 14 119 -35 118 -134 l0 -64 30 7 c146 31 216 -2 203 -97 -10 -72 -41 -93 -219 -143 -281 -80 -449 -211 -536 -418 -14 -34 -27 -63 -28 -65 -1 -2 -22 11 -46 27 -207 140 -488 134 -693 -13 l-49 -35 -21 58 c-80 219 -256 355 -576 441 -63 17 -129 39 -148 48 -77 38 -102 131 -48 178 15 13 40 27 54 30 22 6 94 -6 140 -23 9 -4 11 14 10 64 -3 100 27 143 99 143 55 0 75 -24 103 -125 36 -128 107 -204 166 -177 l27 13 -4 97 c-3 87 -7 105 -40 172 -22 47 -73 121 -137 197 -195 237 -215 274 -191 347 25 78 115 111 174 65 15 -12 57 -58 93 -103 135 -167 153 -182 201 -165 45 15 94 -9 117 -57 16 -33 17 -50 9 -138 -14 -162 -8 -506 11 -579 20 -78 50 -140 88 -184 43 -48 63 -57 98 -42 60 24 64 45 67 353 4 297 -6 421 -38 493 -10 23 -48 81 -84 128 -106 139 -131 203 -146 369 -13 149 -12 226 4 255 27 49 94 65 146 34z m377 -2000 c29 -12 96 -48 150 -81 118 -72 173 -92 258 -92 77 0 148 24 236 82 121 78 186 103 265 103 64 -1 80 -5 160 -45 86 -44 92 -45 179 -44 87 0 93 2 185 48 93 47 96 47 173 43 77 -4 79 -4 370 -152 160 -81 311 -161 333 -176 72 -49 76 -69 68 -380 l-7 -269 -2549 0 -2548 0 0 283 c0 261 2 284 19 314 16 26 77 60 366 205 l346 173 77 0 c70 0 85 -4 172 -45 91 -43 99 -45 185 -45 86 0 94 2 178 44 77 39 96 44 155 44 78 0 108 -11 247 -93 127 -75 170 -90 259 -90 90 1 148 21 270 94 139 85 200 104 311 101 62 -1 106 -8 142 -22z"
       id="path842"
       style="fill:#008080;fill-opacity:1" />
    <path
       d="M5300 7060 c-19 -19 -20 -33 -20 -329 0 -287 1 -310 19 -332 27 -34 86 -32 117 5 l24 27 0 300 0 300 -25 24 c-31 32 -86 34 -115 5z"
       id="path844"
       style="fill:#008080;fill-opacity:1" />
    <path
       d="M2649 6781 c-33 -32 -39 -45 -39 -80 0 -80 53 -141 122 -141 107 0 172 108 118 197 -24 41 -67 63 -121 63 -35 0 -48 -6 -80 -39z"
       id="path846"
       style="fill:#008080;fill-opacity:1" />
    <path
       d="M7454 6801 c-32 -20 -64 -74 -64 -110 0 -12 6 -36 14 -55 42 -101 180 -104 231 -6 60 116 -70 239 -181 171z"
       id="path848"
       style="fill:#008080;fill-opacity:1" />
    <path
       d="M5024 2789 c-38 -9 -173 -74 -388 -187 -71 -38 -85 -42 -150 -42 -65 0 -81 4 -161 44 -109 53 -153 66 -226 66 -75 0 -132 -19 -231 -76 -127 -73 -210 -74 -295 -3 -69 58 -115 79 -171 79 -54 0 -100 -25 -136 -72 -27 -37 -27 -113 0 -159 23 -39 77 -79 107 -79 12 0 31 -10 45 -22 21 -21 35 -23 144 -26 143 -4 184 6 305 79 104 63 151 79 232 81 51 1 81 -5 131 -26 151 -64 172 -69 260 -69 101 0 175 20 254 68 349 210 449 215 745 35 148 -90 186 -102 306 -103 80 0 110 4 150 20 28 12 79 33 114 48 48 20 81 27 133 27 74 1 61 6 298 -118 l75 -39 133 0 c109 0 136 3 145 15 7 9 31 21 53 28 56 16 93 47 115 96 23 52 23 80 0 132 -24 53 -77 86 -139 87 -55 0 -105 -24 -176 -85 -47 -42 -50 -43 -120 -43 -47 0 -81 6 -101 16 -16 9 -59 33 -95 52 -137 75 -246 72 -411 -8 -77 -37 -102 -45 -150 -45 -68 0 -120 17 -193 64 -67 43 -251 132 -325 157 -59 21 -202 25 -277 8z"
       id="path850"
       style="fill:#008080;fill-opacity:1" />
  </g>
</svg>
